<svg width="23" height="23" viewBox="0 0 23 23" fill="none" xmlns="http://www.w3.org/2000/svg">
<g filter="url(#filter0_d_0_82)">
<path d="M4 5.3417C4 3.47194 4 2.53705 4.36388 1.82289C4.68396 1.1947 5.1947 0.683963 5.82289 0.363881C6.53705 0 7.47194 0 9.3417 0H13.4183C15.2881 0 16.223 0 16.9371 0.363881C17.5653 0.683963 18.076 1.1947 18.3961 1.82289C18.76 2.53705 18.76 3.47194 18.76 5.3417V9.4183C18.76 11.2881 18.76 12.223 18.3961 12.9371C18.076 13.5653 17.5653 14.076 16.9371 14.3961C16.223 14.76 15.2881 14.76 13.4183 14.76H9.3417C7.47194 14.76 6.53705 14.76 5.82289 14.3961C5.1947 14.076 4.68396 13.5653 4.36388 12.9371C4 12.223 4 11.2881 4 9.4183V5.3417Z" fill="#00005B"/>
<path d="M7.16286 10.4352V3.79963C7.16286 3.75449 7.18136 3.72869 7.22454 3.72869C7.86198 3.72869 8.49911 3.69 9.13674 3.69C10.1713 3.69 11.2916 4.05058 11.6843 5.15383C11.7768 5.42467 11.8261 5.70195 11.8261 5.99214C11.8261 6.54669 11.7028 7.00452 11.456 7.36566C10.7668 8.3744 9.57222 8.35875 8.50138 8.35875V10.4287C8.50976 10.49 8.45852 10.519 8.40886 10.519H7.23688C7.18753 10.519 7.16286 10.4932 7.16286 10.4352ZM8.50755 4.97328V7.13994C8.93216 7.17168 9.37644 7.1751 9.78439 7.03678C10.2348 6.90436 10.4814 6.507 10.4814 6.03083C10.494 5.62509 10.2771 5.23574 9.9078 5.08936C9.50474 4.91851 8.94265 4.90828 8.50755 4.97328Z" fill="#9999FF"/>
<path d="M12.6623 5.38312H13.7448C13.8045 5.3837 13.8581 5.42677 13.8739 5.48697C13.9532 5.6711 13.963 5.89319 13.9633 6.09197C14.1489 5.86599 14.3728 5.67774 14.6237 5.53652C14.8928 5.37738 15.1978 5.29667 15.507 5.30295C15.5583 5.29525 15.6037 5.34275 15.5964 5.39636V6.65259C15.5964 6.70114 15.5631 6.72528 15.497 6.72528C15.0389 6.69223 14.3255 6.80541 13.9926 7.18211V10.4485C13.9926 10.5108 13.9661 10.542 13.9131 10.542H12.7517C12.6946 10.5505 12.6443 10.4968 12.6524 10.4381V6.89139C12.6524 6.41617 12.6622 5.92661 12.5928 5.45582C12.5821 5.41249 12.6217 5.37221 12.6623 5.38312Z" fill="#9999FF"/>
</g>
<defs>
<filter id="filter0_d_0_82" x="0" y="0" width="22.76" height="22.76" filterUnits="userSpaceOnUse" color-interpolation-filters="sRGB">
<feFlood flood-opacity="0" result="BackgroundImageFix"/>
<feColorMatrix in="SourceAlpha" type="matrix" values="0 0 0 0 0 0 0 0 0 0 0 0 0 0 0 0 0 0 127 0" result="hardAlpha"/>
<feOffset dy="4"/>
<feGaussianBlur stdDeviation="2"/>
<feComposite in2="hardAlpha" operator="out"/>
<feColorMatrix type="matrix" values="0 0 0 0 0 0 0 0 0 0 0 0 0 0 0 0 0 0 0.25 0"/>
<feBlend mode="normal" in2="BackgroundImageFix" result="effect1_dropShadow_0_82"/>
<feBlend mode="normal" in="SourceGraphic" in2="effect1_dropShadow_0_82" result="shape"/>
</filter>
</defs>
</svg>
